<svg xmlns="http://www.w3.org/2000/svg" width="60" height="60" viewBox="0 0 60 60">
  <g id="App_design" data-name="App design" transform="translate(-283 -2040)">
    <rect id="Rectangle_25" data-name="Rectangle 25" width="60" height="60" rx="30" transform="translate(283 2040)" fill="#65bb4a"/>
    <path id="Path_24" data-name="Path 24" d="M9.19,1.461H2.75A2.145,2.145,0,0,0,.608,3.6v6.441A2.145,2.145,0,0,0,2.75,12.184H9.19a2.145,2.145,0,0,0,2.142-2.141V3.6A2.145,2.145,0,0,0,9.19,1.46M24.908,5.307,20.353.754a2.145,2.145,0,0,0-3.029,0l-.63.63L12.77,5.307a2.146,2.146,0,0,0,0,3.028l.631.63,3.293,3.3.631.63a2.142,2.142,0,0,0,3.028,0l3.924-3.925.631-.629a2.143,2.143,0,0,0,0-3.029M9.19,14.33H2.75A2.145,2.145,0,0,0,.608,16.471v6.441A2.145,2.145,0,0,0,2.75,25.054H9.19a2.145,2.145,0,0,0,2.142-2.142V16.471A2.145,2.145,0,0,0,9.19,14.33m12.869,0H15.618a2.145,2.145,0,0,0-2.142,2.142v6.441a2.145,2.145,0,0,0,2.142,2.142h6.441A2.145,2.145,0,0,0,24.2,22.912V16.471a2.145,2.145,0,0,0-2.142-2.142" transform="translate(300.392 2057.872)" fill="#fff"/>
  </g>
</svg>
