<svg xmlns="http://www.w3.org/2000/svg" width="20" height="20" viewBox="0 0 20 20">
  <g id="Completed" transform="translate(-815 -196)">
    <circle id="Ellipse_19" data-name="Ellipse 19" cx="10" cy="10" r="10" transform="translate(815 196)" fill="#55ab36"/>
    <path id="Path_49" data-name="Path 49" d="M16.807,18.456a.855.855,0,0,0-.28-.581.769.769,0,0,0-.6-.2.809.809,0,0,0-.571.28l-4.3,4.842L9.08,21.007a.818.818,0,0,0-.6-.215.8.8,0,0,0-.571.269.818.818,0,0,0-.215.6.8.8,0,0,0,.269.571l2.594,2.357a.827.827,0,0,0,.559.215h.054a.853.853,0,0,0,.581-.28l4.862-5.478a.892.892,0,0,0,.2-.592Z" transform="translate(812.752 184.763)" fill="#fff" stroke="#fff" stroke-width="0.5"/>
  </g>
</svg>
