<svg id="event" xmlns="http://www.w3.org/2000/svg" width="20" height="20" viewBox="0 0 20 20">
  <path id="Path_166" data-name="Path 166" d="M0,0H20V20H0Z" fill="none" opacity="0"/>
  <path id="Path_167" data-name="Path 167" d="M1.25,1.875V.625A.63.63,0,0,0,.625,0,.63.63,0,0,0,0,.625v1.3a5,5,0,0,1,.625-.05Z" transform="translate(5.208 1.042)" fill="#252525"/>
  <path id="Path_168" data-name="Path 168" d="M1.25,1.925V.625A.63.63,0,0,0,.625,0,.63.63,0,0,0,0,.625v1.25H.625a5,5,0,0,1,.625.05Z" transform="translate(11.876 1.042)" fill="#252525"/>
  <path id="Path_169" data-name="Path 169" d="M6.075.808A3.752,3.752,0,0,0,0,3.75,3.675,3.675,0,0,0,.545,5.675,3.8,3.8,0,0,0,1.558,6.784a3.718,3.718,0,0,0,4.658-.216,3.322,3.322,0,0,0,.742-.884A3.739,3.739,0,0,0,6.075.808ZM3.75,5.536A1.785,1.785,0,0,0,1.966,3.75,1.785,1.785,0,0,0,3.75,1.967,1.785,1.785,0,0,0,5.534,3.75,1.785,1.785,0,0,0,3.75,5.534Z" transform="translate(11.666 11.666)" fill="#252525"/>
  <path id="Path_170" data-name="Path 170" d="M11.455.05v1.2a.625.625,0,0,1-1.25,0V0H4.792V1.25a.625.625,0,1,1-1.25,0V.05C1.084.273,0,1.858,0,4.166V11.25c0,2.5,1.25,4.166,4.166,4.166H7.608a1.041,1.041,0,0,0,.9-1.325,5.63,5.63,0,0,1,5.45-7.008h.034A.966.966,0,0,0,15,6.174V4.166C15,1.858,13.916.273,11.455.05ZM5.834,11.042H4.166a.625.625,0,0,1,0-1.25H5.834a.625.625,0,0,1,0,1.25Zm2.5-4.166H4.166a.625.625,0,1,1,0-1.25H8.334a.625.625,0,0,1,0,1.25Z" transform="translate(1.666 2.916)" fill="#252525"/>
</svg>
