<svg xmlns="http://www.w3.org/2000/svg" width="38.004" height="38.004" viewBox="0 0 38.004 38.004">
  <g id="notify" transform="translate(-76.994 -40)">
    <rect id="Rectangle_4447" data-name="Rectangle 4447" width="38.004" height="38.004" rx="8" transform="translate(76.994 40)" fill="#264ac2"/>
    <g id="Group_4804" data-name="Group 4804" transform="translate(84.603 47.602)">
      <g id="Group_4803" data-name="Group 4803" transform="translate(0 0)">
        <path id="Path_8469" data-name="Path 8469" d="M15.914,11.409,14.84,9.624a3.758,3.758,0,0,1-.447-1.6V6.255a6.247,6.247,0,1,0-12.494,0V8.028a3.889,3.889,0,0,1-.437,1.6L.389,11.4a2.523,2.523,0,0,0-.253,2.166,2.5,2.5,0,0,0,1.6,1.492,21.026,21.026,0,0,0,3.116.77c.105.019.209.029.314.048l.418.057c.253.038.494.067.751.086.6.057,1.207.086,1.815.086s1.2-.029,1.786-.086c.219-.019.437-.038.646-.067.171-.019.342-.038.513-.067.105-.01.209-.029.314-.048a20.013,20.013,0,0,0,3.145-.779,2.518,2.518,0,0,0,1.558-1.5,2.479,2.479,0,0,0-.194-2.146ZM8.845,7.551a.722.722,0,0,1-1.444,0V4.606a.722.722,0,0,1,1.444,0Z" transform="translate(3.266 1.948)" fill="#fff"/>
        <path id="Path_8470" data-name="Path 8470" d="M5.368.01A2.864,2.864,0,0,1,2.679,1.9,2.817,2.817,0,0,1,.665,1.055,2.623,2.623,0,0,1,0,0C.127.019.253.029.38.048.6.076.827.105,1.055.127,1.6.175,2.148.2,2.7.2S3.781.171,4.313.127c.2-.022.4-.032.589-.06Z" transform="translate(8.719 18.999)" fill="#fff"/>
        <path id="Path_8471" data-name="Path 8471" d="M0,0H22.8V22.8H0Z" transform="translate(22.799 22.799) rotate(180)" fill="none" opacity="0"/>
      </g>
    </g>
  </g>
</svg>
