<svg xmlns="http://www.w3.org/2000/svg" width="20" height="20" viewBox="0 0 20 20">
  <g id="Settings" transform="translate(-300.004 -190.004)">
    <g id="Group_428" data-name="Group 428" transform="translate(300.004 190.004)">
      <path id="Path_164" data-name="Path 164" d="M15.086,5.55c-1.508,0-2.125-1.067-1.375-2.375a1.581,1.581,0,0,0-.584-2.159L11.685.191a1.391,1.391,0,0,0-1.9.5L9.694.849c-.75,1.308-1.984,1.308-2.742,0L6.86.691a1.364,1.364,0,0,0-1.884-.5l-1.442.825a1.591,1.591,0,0,0-.584,2.165c.758,1.3.142,2.364-1.364,2.364A1.588,1.588,0,0,0,0,7.134V8.6a1.588,1.588,0,0,0,1.584,1.581c1.508,0,2.125,1.067,1.364,2.375a1.581,1.581,0,0,0,.584,2.159l1.442.825a1.391,1.391,0,0,0,1.9-.5l.091-.158c.75-1.308,1.984-1.308,2.742,0l.091.158a1.391,1.391,0,0,0,1.9.5l1.442-.825a1.583,1.583,0,0,0,.584-2.159c-.758-1.308-.142-2.375,1.364-2.375A1.588,1.588,0,0,0,16.669,8.6V7.134A1.6,1.6,0,0,0,15.086,5.55ZM8.334,10.576a2.709,2.709,0,1,1,2.709-2.709,2.709,2.709,0,0,1-2.709,2.709Z" transform="translate(1.664 2.131)" fill="#252525"/>
      <path id="Path_165" data-name="Path 165" d="M0,0H20V20H0Z" transform="translate(20 20) rotate(180)" fill="none" opacity="0"/>
    </g>
  </g>
</svg>
