<svg xmlns="http://www.w3.org/2000/svg" width="20" height="20" viewBox="0 0 20 20">
  <g id="vuesax_outline_edit" data-name="vuesax/outline/edit" transform="translate(-623 -251)">
    <g id="edit" transform="translate(623 251)">
      <path id="Vector" d="M11.443,17.893H6.45c-4.519,0-6.45-1.931-6.45-6.45V6.45C0,1.931,1.931,0,6.45,0H8.114a.629.629,0,0,1,.624.624.629.629,0,0,1-.624.624H6.45c-3.837,0-5.2,1.365-5.2,5.2v4.993c0,3.837,1.365,5.2,5.2,5.2h4.993c3.837,0,5.2-1.365,5.2-5.2V9.779a.624.624,0,1,1,1.248,0v1.664C17.893,15.962,15.962,17.893,11.443,17.893Z" transform="translate(1.053 1.053)" fill="#6b6b6b"/>
      <path id="Vector-2" data-name="Vector" d="M1.853,14.067a1.887,1.887,0,0,1-1.331-.522,1.9,1.9,0,0,1-.5-1.643L.386,9.365A2.923,2.923,0,0,1,1.12,7.9l6.64-6.64c1.677-1.677,3.379-1.677,5.056,0a3.518,3.518,0,0,1,1.247,2.789,3.749,3.749,0,0,1-1.247,2.258l-6.64,6.64a2.923,2.923,0,0,1-1.466.733l-2.537.362A1.405,1.405,0,0,1,1.853,14.067Zm6.8-11.916-6.64,6.64a1.715,1.715,0,0,0-.379.75l-.362,2.537a.662.662,0,0,0,.143.573.662.662,0,0,0,.573.143l2.537-.362a1.671,1.671,0,0,0,.75-.379l6.64-6.64a2.586,2.586,0,0,0,.876-1.492,2.339,2.339,0,0,0-.876-1.778C10.566.794,9.639,1.173,8.653,2.151Z" transform="translate(5.085 0.841)" fill="#6b6b6b"/>
      <path id="Vector-3" data-name="Vector" d="M4.793,5.433a.543.543,0,0,1-.169-.025,6.688,6.688,0,0,1-4.6-4.6A.64.64,0,0,1,.461.023a.627.627,0,0,1,.775.438A5.414,5.414,0,0,0,4.961,4.186.636.636,0,0,1,5.4,4.97.62.62,0,0,1,4.793,5.433Z" transform="translate(11.71 2.85)" fill="#6b6b6b"/>
      <path id="Vector-4" data-name="Vector" d="M0,0H20V20H0Z" fill="none" opacity="0"/>
    </g>
  </g>
</svg>
