<svg xmlns="http://www.w3.org/2000/svg" width="18" height="18" viewBox="0 0 18 18">
  <g id="watch" transform="translate(-172 -188)">
    <g id="Group_6419" data-name="Group 6419" transform="translate(172 188)">
      <path id="Path_9937" data-name="Path 9937" d="M7.5,0A7.5,7.5,0,1,0,15,7.5,7.5,7.5,0,0,0,7.5,0Zm3.262,10.177a.56.56,0,0,1-.487.277.5.5,0,0,1-.285-.082L7.665,8.985a2.212,2.212,0,0,1-1-1.77V4.14a.563.563,0,0,1,1.125,0V7.215a1.108,1.108,0,0,0,.457.8L10.567,9.4a.555.555,0,0,1,.195.777Z" transform="translate(1.5 1.5)" fill="#5f55ee"/>
      <path id="Path_9938" data-name="Path 9938" d="M0,0H18V18H0Z" transform="translate(18 18) rotate(180)" fill="none" opacity="0"/>
    </g>
  </g>
</svg>
